<svg width="94" height="54" viewBox="0 0 94 54" fill="none" xmlns="http://www.w3.org/2000/svg">
<g filter="url(#filter0_d_341_756)">
<rect x="8" y="6" width="78" height="38" rx="5" fill="#286EF1"/>
<path d="M14.9038 31V29.608L19.3518 25.384C19.7251 25.032 20.0024 24.7227 20.1838 24.456C20.3651 24.1893 20.4824 23.944 20.5358 23.72C20.5998 23.4853 20.6318 23.2667 20.6318 23.064C20.6318 22.552 20.4558 22.1573 20.1038 21.88C19.7518 21.592 19.2344 21.448 18.5518 21.448C18.0078 21.448 17.5118 21.544 17.0638 21.736C16.6264 21.928 16.2478 22.2213 15.9278 22.616L14.4718 21.496C14.9091 20.9093 15.4958 20.456 16.2318 20.136C16.9784 19.8053 17.8104 19.64 18.7278 19.64C19.5384 19.64 20.2424 19.7733 20.8398 20.04C21.4478 20.296 21.9118 20.664 22.2318 21.144C22.5624 21.624 22.7278 22.1947 22.7278 22.856C22.7278 23.2187 22.6798 23.5813 22.5838 23.944C22.4878 24.296 22.3064 24.6693 22.0398 25.064C21.7731 25.4587 21.3838 25.9013 20.8718 26.392L17.0478 30.024L16.6158 29.24H23.1597V31H14.9038Z" fill="#286EF1"/>
<path d="M30.9038 31V29.608L35.3518 25.384C35.7251 25.032 36.0024 24.7227 36.1838 24.456C36.3651 24.1893 36.4824 23.944 36.5358 23.72C36.5998 23.4853 36.6318 23.2667 36.6318 23.064C36.6318 22.552 36.4558 22.1573 36.1038 21.88C35.7518 21.592 35.2344 21.448 34.5518 21.448C34.0078 21.448 33.5118 21.544 33.0638 21.736C32.6264 21.928 32.2478 22.2213 31.9278 22.616L30.4718 21.496C30.9091 20.9093 31.4958 20.456 32.2318 20.136C32.9784 19.8053 33.8104 19.64 34.7278 19.64C35.5384 19.64 36.2424 19.7733 36.8398 20.04C37.4478 20.296 37.9118 20.664 38.2318 21.144C38.5624 21.624 38.7278 22.1947 38.7278 22.856C38.7278 23.2187 38.6798 23.5813 38.5838 23.944C38.4878 24.296 38.3064 24.6693 38.0398 25.064C37.7731 25.4587 37.3838 25.9013 36.8718 26.392L33.0478 30.024L32.6158 29.24H39.1597V31H30.9038Z" fill="#286EF1"/>
<path fill-rule="evenodd" clip-rule="evenodd" d="M71.3193 16.6204L67.8308 17.6688L70.1541 23.7449C71.5542 23.4019 73.0323 23.6054 74.2876 24.3139C75.5429 25.0224 76.481 26.1827 76.911 27.5586C77.341 28.9344 77.2304 30.4224 76.6019 31.7196C75.9734 33.0168 74.8742 34.0258 73.528 34.541C72.1817 35.0563 70.6898 35.0392 69.3557 34.4932C68.0217 33.9471 66.9459 32.9132 66.3473 31.6019C65.7487 30.2906 65.6724 28.8005 66.1338 27.4349C66.5952 26.0693 67.5597 24.9308 68.8309 24.2513L67.6636 21.1984L63.6388 29.5581C63.5808 29.6782 63.4901 29.7795 63.377 29.8503C63.264 29.9211 63.1333 29.9586 62.9999 29.9584H60.1227C59.9409 31.3873 59.2218 32.6933 58.1116 33.6111C57.0014 34.5289 55.5833 34.9894 54.1457 34.8992C52.7081 34.809 51.3588 34.1748 50.372 33.1255C49.3852 32.0762 48.835 30.6904 48.8333 29.25C48.8322 27.8078 49.381 26.4195 50.368 25.3679C51.3549 24.3163 52.7057 23.6806 54.1451 23.5903C55.5844 23.4999 57.0041 23.9618 58.1147 24.8818C59.2254 25.8018 59.9435 27.1107 60.1227 28.5417H61.8935L58.4368 18.863C58.4096 18.7866 58.3957 18.7061 58.3958 18.625H57.3333C57.1454 18.625 56.9652 18.5504 56.8324 18.4176C56.6995 18.2847 56.6249 18.1045 56.6249 17.9167C56.6249 17.7288 56.6995 17.5487 56.8324 17.4158C56.9652 17.283 57.1454 17.2084 57.3333 17.2084H60.5208C60.7086 17.2084 60.8888 17.283 61.0216 17.4158C61.1545 17.5487 61.2291 17.7288 61.2291 17.9167C61.2291 18.1045 61.1545 18.2847 61.0216 18.4176C60.8888 18.5504 60.7086 18.625 60.5208 18.625H59.8563L61.1611 22.2779L66.9177 19.2484L66.2342 17.4612C66.1994 17.3702 66.1837 17.273 66.1882 17.1757C66.1927 17.0784 66.2172 16.983 66.2602 16.8956C66.3032 16.8082 66.3638 16.7305 66.4382 16.6676C66.5126 16.6047 66.5991 16.5577 66.6925 16.5298L70.912 15.264L71.3193 16.6204ZM61.642 23.6259L63.0389 27.5359L66.0351 21.3139L61.642 23.6259ZM70.8383 29.5029L69.3416 25.5879C68.4238 26.1294 67.7429 26.996 67.4339 28.0158C67.1248 29.0356 67.2102 30.1344 67.673 31.0942C68.1358 32.0541 68.9424 32.8051 69.9328 33.1984C70.9232 33.5916 72.0252 33.5985 73.0205 33.2175C74.0157 32.8366 74.8315 32.0957 75.3062 31.1416C75.7809 30.1876 75.8799 29.09 75.5835 28.0664C75.2872 27.0428 74.6171 26.1679 73.7061 25.615C72.7951 25.0622 71.7096 24.8718 70.6648 25.0815L72.1615 28.9971C72.2255 29.1719 72.2182 29.3649 72.141 29.5343C72.0639 29.7037 71.9232 29.836 71.7493 29.9024C71.5754 29.9689 71.3824 29.9642 71.2119 29.8895C71.0414 29.8147 70.9072 29.6758 70.8383 29.5029ZM58.6911 28.5417H54.4999C54.3121 28.5417 54.1319 28.6163 53.9991 28.7491C53.8662 28.882 53.7916 29.0622 53.7916 29.25C53.7916 29.4379 53.8662 29.618 53.9991 29.7509C54.1319 29.8837 54.3121 29.9584 54.4999 29.9584H58.6911C58.5107 31.0067 57.9438 31.9494 57.1023 32.6002C56.2608 33.251 55.2059 33.5627 54.1458 33.4737C53.0857 33.3848 52.0975 32.9017 51.3763 32.1197C50.655 31.3377 50.2531 30.3138 50.2499 29.25C50.2489 28.1837 50.6488 27.156 51.3703 26.3708C52.0917 25.5855 53.082 25.1002 54.1445 25.011C55.2071 24.9219 56.2644 25.2354 57.1066 25.8894C57.9488 26.5434 58.5144 27.4901 58.6911 28.5417Z" fill="#FFFDFD"/>
<rect x="8.75" y="6.75" width="76.5" height="36.5" rx="4.25" stroke="#286EF1" stroke-width="1.5"/>
</g>
<defs>
<filter id="filter0_d_341_756" x="0" y="0" width="94" height="54" filterUnits="userSpaceOnUse" color-interpolation-filters="sRGB">
<feFlood flood-opacity="0" result="BackgroundImageFix"/>
<feColorMatrix in="SourceAlpha" type="matrix" values="0 0 0 0 0 0 0 0 0 0 0 0 0 0 0 0 0 0 127 0" result="hardAlpha"/>
<feOffset dy="2"/>
<feGaussianBlur stdDeviation="4"/>
<feComposite in2="hardAlpha" operator="out"/>
<feColorMatrix type="matrix" values="0 0 0 0 0 0 0 0 0 0 0 0 0 0 0 0 0 0 0.25 0"/>
<feBlend mode="normal" in2="BackgroundImageFix" result="effect1_dropShadow_341_756"/>
<feBlend mode="normal" in="SourceGraphic" in2="effect1_dropShadow_341_756" result="shape"/>
</filter>
</defs>
</svg>


