<svg width="30" height="30" viewBox="0 0 30 30" fill="none" xmlns="http://www.w3.org/2000/svg">
<path d="M15 24.7826C20.4028 24.7826 24.7826 20.4028 24.7826 15C24.7826 9.59719 20.4028 5.21737 15 5.21737C9.59719 5.21737 5.21737 9.59719 5.21737 15C5.21737 20.4028 9.59719 24.7826 15 24.7826Z" fill="#FFC107"/>
<path d="M15 3.91304C15.3602 3.91304 15.6522 3.62103 15.6522 3.26085V0.652194C15.6522 0.292011 15.3602 0 15 0C14.6398 0 14.3478 0.292011 14.3478 0.652194V3.26091C14.3478 3.62103 14.6398 3.91304 15 3.91304Z" fill="#FFD54F"/>
<path d="M15 26.087C14.6398 26.087 14.3478 26.379 14.3478 26.7392V29.3478C14.3478 29.708 14.6398 30 15 30C15.3602 30 15.6522 29.708 15.6522 29.3478V26.7391C15.6522 26.3789 15.3602 26.087 15 26.087Z" fill="#FFD54F"/>
<path d="M29.3478 14.3478H26.7391C26.3789 14.3478 26.0869 14.6398 26.0869 15C26.0869 15.3602 26.3789 15.6522 26.7391 15.6522H29.3478C29.708 15.6522 30 15.3602 30 15C30 14.6398 29.708 14.3478 29.3478 14.3478Z" fill="#FFD54F"/>
<path d="M3.91304 15C3.91304 14.6398 3.62103 14.3478 3.26085 14.3478H0.652194C0.292011 14.3478 0 14.6398 0 15C0 15.3602 0.292011 15.6522 0.652194 15.6522H3.26091C3.62103 15.6522 3.91304 15.3602 3.91304 15Z" fill="#FFD54F"/>
<path d="M8.56565 5.16002C8.68236 5.36221 8.89825 5.48657 9.13175 5.48608C9.24627 5.48651 9.35889 5.45637 9.45782 5.39871C9.76976 5.21859 9.87658 4.81977 9.69651 4.50782L8.39219 2.24871C8.21005 1.93799 7.81049 1.83375 7.49977 2.01589C7.19192 2.19632 7.08627 2.59068 7.26266 2.90085L8.56565 5.16002Z" fill="#FFD54F"/>
<path d="M21.4344 24.84C21.2522 24.5293 20.8526 24.4251 20.5419 24.6073C20.2342 24.7878 20.1285 25.182 20.3048 25.4922L21.6091 27.7513C21.7258 27.9535 21.9417 28.0778 22.1752 28.0774C22.2897 28.0778 22.4023 28.0476 22.5013 27.99C22.8132 27.8099 22.92 27.411 22.74 27.0991L21.4344 24.84Z" fill="#FFD54F"/>
<path d="M25.166 9.7826C25.2806 9.78303 25.3932 9.75289 25.4921 9.69523L27.7512 8.39091C28.0704 8.22393 28.1938 7.82987 28.0268 7.51072C27.8598 7.19156 27.4658 7.06817 27.1466 7.23515C27.1303 7.24365 27.1145 7.25282 27.099 7.26267L24.8399 8.56699C24.528 8.74711 24.4212 9.146 24.6012 9.45788C24.7177 9.65965 24.933 9.78395 25.166 9.78395V9.7826H25.166Z" fill="#FFD54F"/>
<path d="M4.50782 20.3048L2.24871 21.6091C1.93677 21.7892 1.82995 22.188 2.01002 22.5C2.12649 22.7017 2.34177 22.8261 2.57478 22.8261C2.68929 22.8265 2.80192 22.7963 2.90084 22.7387L5.15995 21.4344C5.47911 21.2674 5.60249 20.8733 5.43552 20.5542C5.26854 20.235 4.87448 20.1116 4.55533 20.2786C4.53906 20.2871 4.52323 20.2963 4.50776 20.3061L4.50782 20.3048Z" fill="#FFD54F"/>
<path d="M2.24871 8.39084L4.50782 9.69517C4.60644 9.75258 4.71851 9.78279 4.8326 9.78254C5.19279 9.78254 5.48474 9.49053 5.48474 9.13035C5.48474 8.8974 5.36044 8.68212 5.15867 8.56559L2.89956 7.26126C2.59557 7.06805 2.19252 7.15781 1.99932 7.46174C1.80611 7.76567 1.89587 8.16878 2.1998 8.36199C2.21527 8.37183 2.2311 8.381 2.24737 8.3895L2.24871 8.39084Z" fill="#FFD54F"/>
<path d="M27.7513 21.6091L25.4922 20.3048C25.1882 20.1116 24.7851 20.2013 24.5919 20.5053C24.3987 20.8092 24.4885 21.2123 24.7924 21.4055C24.8079 21.4153 24.8238 21.4245 24.84 21.433L27.0991 22.7373C27.1981 22.795 27.3106 22.8251 27.4252 22.8247C27.7853 22.8247 28.0773 22.5327 28.0773 22.1725C28.0773 21.9395 27.953 21.7242 27.7512 21.6078V21.6091H27.7513Z" fill="#FFD54F"/>
<path d="M20.5435 5.39871C20.6425 5.45637 20.755 5.48651 20.8695 5.48608C21.103 5.48657 21.3189 5.36215 21.4356 5.16002L22.74 2.90091C22.9179 2.5878 22.8084 2.18965 22.4953 2.01167C22.1851 1.8354 21.7909 1.94099 21.6104 2.24878L20.3061 4.50788C20.1257 4.8194 20.232 5.21816 20.5435 5.39871Z" fill="#FFD54F"/>
<path d="M9.45654 24.6013C9.14459 24.4212 8.74577 24.528 8.56565 24.84L7.26132 27.0991C7.08126 27.411 7.18807 27.8099 7.50002 27.99C7.599 28.0476 7.71156 28.0778 7.82608 28.0774C8.05952 28.0778 8.27547 27.9534 8.39219 27.7513L9.69652 25.4922C9.87627 25.1801 9.76903 24.7813 9.4569 24.6015C9.45678 24.6014 9.45666 24.6014 9.45654 24.6013Z" fill="#FFD54F"/>
</svg>
