<svg width="30" height="19" viewBox="0 0 30 19" fill="none" xmlns="http://www.w3.org/2000/svg">
<path d="M22.6672 5.01804C21.7194 3.20963 20.2065 1.76048 18.359 0.891223C16.5115 0.0219688 14.4306 -0.219773 12.433 0.202801C10.4355 0.625375 8.63072 1.68912 7.29352 3.23208C5.95632 4.77504 5.15994 6.71269 5.02563 8.75004C5.01709 8.75004 0 8.96887 0 13.75C0.00151688 15.0757 0.528788 16.3465 1.46614 17.2839C2.40349 18.2212 3.67438 18.7485 5 18.75H18.125C18.2908 18.75 18.4497 18.6842 18.5669 18.567C18.6842 18.4498 18.75 18.2908 18.75 18.125C18.75 17.9593 18.6842 17.8003 18.5669 17.6831C18.4497 17.5659 18.2908 17.5 18.125 17.5H5C4.00544 17.5 3.05161 17.1049 2.34835 16.4017C1.64509 15.6984 1.25 14.7446 1.25 13.75C1.25 12.7555 1.64509 11.8016 2.34835 11.0984C3.05161 10.3951 4.00544 10 5 10C5.62074 10.033 6.22816 10.1926 6.7849 10.4691C7.34164 10.7456 7.83592 11.1331 8.23731 11.6077C8.34267 11.7293 8.48661 11.8111 8.64504 11.8393C8.80347 11.8675 8.96679 11.8405 9.10767 11.7627C9.1752 11.7159 9.23281 11.6562 9.27719 11.5871C9.32156 11.5179 9.35182 11.4407 9.36623 11.3598C9.38063 11.2789 9.3789 11.1959 9.36112 11.1157C9.34335 11.0355 9.30989 10.9596 9.26267 10.8923C8.53372 9.89707 7.47397 9.19412 6.27355 8.90962C6.36977 7.17247 7.02221 5.51234 8.13448 4.17451C9.24676 2.83668 10.7599 1.8921 12.4502 1.48034C14.1406 1.06858 15.9186 1.21147 17.5216 1.88791C19.1245 2.56434 20.4673 3.73844 21.3517 5.23674C19.861 5.62904 18.5473 6.51484 17.6248 7.74967C17.5732 7.8144 17.5354 7.88899 17.5136 7.96885C17.4919 8.04872 17.4867 8.13218 17.4984 8.21413C17.51 8.29608 17.5383 8.37478 17.5814 8.44542C17.6246 8.51605 17.6817 8.57713 17.7493 8.62491C17.8858 8.71283 18.0494 8.74863 18.2101 8.72577C18.3709 8.7029 18.518 8.6229 18.6245 8.5004C19.1404 7.79308 19.8182 7.21964 20.6012 6.82811C21.3842 6.43658 22.2496 6.23836 23.125 6.25004C24.3056 6.25002 25.4563 6.62148 26.4141 7.31181C27.3718 8.00214 28.0881 8.97633 28.4614 10.0964C28.8347 11.2164 28.8461 12.4255 28.494 13.5524C28.1419 14.6793 27.4442 15.6669 26.4996 16.3752C26.3671 16.4747 26.2795 16.6229 26.2561 16.787C26.2328 16.9511 26.2756 17.1178 26.3751 17.2504C26.4747 17.383 26.6228 17.4706 26.787 17.4939C26.9511 17.5173 27.1178 17.4745 27.2504 17.3749C28.1072 16.7373 28.8023 15.9075 29.2799 14.9523C29.7575 13.997 30.0041 12.943 30 11.875C30 5.22941 22.8269 5.00584 22.6672 5.01804Z" fill="#286EF1"/>
</svg>
