<svg width="25" height="25" viewBox="0 0 25 25" fill="none" xmlns="http://www.w3.org/2000/svg">
<path d="M7.34823 18.7873C13.6655 18.7873 18.786 13.666 18.786 7.34871C18.786 4.5495 17.7774 1.98883 16.1085 0.000480652C21.265 1.65583 24.9992 6.48582 24.9992 12.1923C24.9992 19.266 19.2655 24.9997 12.1918 24.9997C6.48534 24.9997 1.65535 21.2655 0 16.109C1.98835 17.7787 4.54982 18.7873 7.34823 18.7873Z" fill="#FFD93B"/>
<path d="M20.1076 2.14003C21.8206 4.31649 22.85 7.05646 22.85 10.0422C22.85 17.1159 17.1163 22.8496 10.0426 22.8496C7.05687 22.8496 4.31689 21.8202 2.14043 20.1072C4.48418 23.0825 8.11107 24.9996 12.1926 24.9996C19.2663 24.9996 25 19.2659 25 12.1922C25 8.11067 23.0829 4.48458 20.1076 2.14003Z" fill="#F4C534"/>
<path d="M6.41009 5.00008L7.72925 7.67442L10.6798 8.10267L8.54492 10.1839L9.04841 13.1224L6.41009 11.7352L3.77097 13.1224L4.27446 10.1839L2.13963 8.10267L5.09013 7.67442L6.41009 5.00008Z" fill="#FFD83B"/>
<path d="M13.8512 4.14439L14.5348 5.53079L16.0645 5.75251L14.9574 6.83153L15.2192 8.35401L13.8512 7.6352L12.4832 8.35401L12.7449 6.83153L11.6379 5.75251L13.1676 5.53079L13.8512 4.14439Z" fill="#FFD83B"/>
</svg>
