<svg width="206" height="75" viewBox="0 0 206 75" fill="none" xmlns="http://www.w3.org/2000/svg">
<path d="M20 37.05C22.8 37.05 25.2667 36.7167 27.4 36.05C29.5667 35.35 31.3667 34.3833 32.8 33.15C34.2667 31.8833 35.3667 30.3833 36.1 28.65C36.8333 26.9167 37.2 25 37.2 22.9C37.2 18.6333 35.8 15.4167 33 13.25C30.2 11.0833 26 10 20.4 10H9.8V37.05H20ZM53.1 74H44.5C42.7333 74 41.4333 73.3167 40.6 71.95L22 46.35C21.4333 45.55 20.8167 44.9833 20.15 44.65C19.5167 44.2833 18.5167 44.1 17.15 44.1H9.8V74H0.150001V2.35H20.4C24.9333 2.35 28.85 2.81666 32.15 3.75C35.45 4.65 38.1667 5.96666 40.3 7.7C42.4667 9.43333 44.0667 11.5333 45.1 14C46.1333 16.4333 46.65 19.1667 46.65 22.2C46.65 24.7333 46.25 27.1 45.45 29.3C44.65 31.5 43.4833 33.4833 41.95 35.25C40.45 36.9833 38.6 38.4667 36.4 39.7C34.2333 40.9333 31.7667 41.8667 29 42.5C30.2333 43.2 31.3 44.2167 32.2 45.55L53.1 74ZM69.5117 23.35V74H60.6117V23.35H69.5117ZM71.4117 7.45C71.4117 8.31666 71.2284 9.13333 70.8617 9.9C70.5284 10.6333 70.0617 11.3 69.4617 11.9C68.8951 12.4667 68.2117 12.9167 67.4117 13.25C66.6451 13.5833 65.8284 13.75 64.9617 13.75C64.0951 13.75 63.2784 13.5833 62.5117 13.25C61.7784 12.9167 61.1284 12.4667 60.5617 11.9C59.9951 11.3 59.5451 10.6333 59.2117 9.9C58.8784 9.13333 58.7117 8.31666 58.7117 7.45C58.7117 6.58333 58.8784 5.76666 59.2117 4.99999C59.5451 4.2 59.9951 3.51666 60.5617 2.94999C61.1284 2.35 61.7784 1.88333 62.5117 1.54999C63.2784 1.21666 64.0951 1.04999 64.9617 1.04999C65.8284 1.04999 66.6451 1.21666 67.4117 1.54999C68.2117 1.88333 68.8951 2.35 69.4617 2.94999C70.0617 3.51666 70.5284 4.2 70.8617 4.99999C71.2284 5.76666 71.4117 6.58333 71.4117 7.45ZM117.185 35.4C115.518 33.1667 113.718 31.6167 111.785 30.75C109.852 29.85 107.685 29.4 105.285 29.4C100.585 29.4 96.9685 31.0833 94.4352 34.45C91.9018 37.8167 90.6352 42.6167 90.6352 48.85C90.6352 52.15 90.9185 54.9833 91.4852 57.35C92.0518 59.6833 92.8852 61.6167 93.9852 63.15C95.0852 64.65 96.4352 65.75 98.0352 66.45C99.6352 67.15 101.452 67.5 103.485 67.5C106.418 67.5 108.968 66.8333 111.135 65.5C113.335 64.1667 115.352 62.2833 117.185 59.85V35.4ZM126.085 0.349998V74H120.785C119.518 74 118.718 73.3833 118.385 72.15L117.585 66C115.418 68.6 112.952 70.7 110.185 72.3C107.418 73.9 104.218 74.7 100.585 74.7C97.6852 74.7 95.0518 74.15 92.6852 73.05C90.3185 71.9167 88.3018 70.2667 86.6352 68.1C84.9685 65.9333 83.6852 63.2333 82.7852 60C81.8852 56.7667 81.4352 53.05 81.4352 48.85C81.4352 45.1167 81.9352 41.65 82.9352 38.45C83.9352 35.2167 85.3685 32.4167 87.2352 30.05C89.1018 27.6833 91.3852 25.8333 94.0852 24.5C96.8185 23.1333 99.8852 22.45 103.285 22.45C106.385 22.45 109.035 22.9833 111.235 24.05C113.468 25.0833 115.452 26.5333 117.185 28.4V0.349998H126.085ZM174.092 43.15C174.092 41.0833 173.792 39.2 173.192 37.5C172.626 35.7667 171.776 34.2833 170.642 33.05C169.542 31.7833 168.192 30.8167 166.592 30.15C164.992 29.45 163.176 29.1 161.142 29.1C156.876 29.1 153.492 30.35 150.992 32.85C148.526 35.3167 146.992 38.75 146.392 43.15H174.092ZM181.292 66.9C180.192 68.2333 178.876 69.4 177.342 70.4C175.809 71.3667 174.159 72.1667 172.392 72.8C170.659 73.4333 168.859 73.9 166.992 74.2C165.126 74.5333 163.276 74.7 161.442 74.7C157.942 74.7 154.709 74.1167 151.742 72.95C148.809 71.75 146.259 70.0167 144.092 67.75C141.959 65.45 140.292 62.6167 139.092 59.25C137.892 55.8833 137.292 52.0167 137.292 47.65C137.292 44.1167 137.826 40.8167 138.892 37.75C139.992 34.6833 141.559 32.0333 143.592 29.8C145.626 27.5333 148.109 25.7667 151.042 24.5C153.976 23.2 157.276 22.55 160.942 22.55C163.976 22.55 166.776 23.0667 169.342 24.1C171.942 25.1 174.176 26.5667 176.042 28.5C177.942 30.4 179.426 32.7667 180.492 35.6C181.559 38.4 182.092 41.6 182.092 45.2C182.092 46.6 181.942 47.5333 181.642 48C181.342 48.4667 180.776 48.7 179.942 48.7H146.092C146.192 51.9 146.626 54.6833 147.392 57.05C148.192 59.4167 149.292 61.4 150.692 63C152.092 64.5667 153.759 65.75 155.692 66.55C157.626 67.3167 159.792 67.7 162.192 67.7C164.426 67.7 166.342 67.45 167.942 66.95C169.576 66.4167 170.976 65.85 172.142 65.25C173.309 64.65 174.276 64.1 175.042 63.6C175.842 63.0667 176.526 62.8 177.092 62.8C177.826 62.8 178.392 63.0833 178.792 63.65L181.292 66.9ZM203.774 2.35V30.95C203.774 32.45 203.741 33.9167 203.674 35.35C203.608 36.7833 203.524 38.2333 203.424 39.7C203.324 41.1333 203.191 42.6167 203.024 44.15C202.891 45.65 202.724 47.2667 202.524 49H196.524C196.324 47.2667 196.141 45.65 195.974 44.15C195.841 42.6167 195.724 41.1333 195.624 39.7C195.524 38.2333 195.441 36.7833 195.374 35.35C195.308 33.9167 195.274 32.45 195.274 30.95V2.35H203.774ZM193.124 68.5C193.124 67.6333 193.274 66.8167 193.574 66.05C193.908 65.2833 194.358 64.6167 194.924 64.05C195.491 63.4833 196.141 63.0333 196.874 62.7C197.641 62.3667 198.474 62.2 199.374 62.2C200.241 62.2 201.041 62.3667 201.774 62.7C202.541 63.0333 203.208 63.4833 203.774 64.05C204.341 64.6167 204.791 65.2833 205.124 66.05C205.458 66.8167 205.624 67.6333 205.624 68.5C205.624 69.4 205.458 70.2333 205.124 71C204.791 71.7333 204.341 72.3833 203.774 72.95C203.208 73.5167 202.541 73.95 201.774 74.25C201.041 74.5833 200.241 74.75 199.374 74.75C198.474 74.75 197.641 74.5833 196.874 74.25C196.141 73.95 195.491 73.5167 194.924 72.95C194.358 72.3833 193.908 71.7333 193.574 71C193.274 70.2333 193.124 69.4 193.124 68.5Z" fill="#286EF1"/>
</svg>
