<svg width="30" height="30" viewBox="0 0 30 30" fill="none" xmlns="http://www.w3.org/2000/svg">
<g clip-path="url(#clip0_349_741)">
<path d="M22.6672 5.01796C21.7194 3.20954 20.2065 1.76039 18.359 0.891139C16.5115 0.0218849 14.4306 -0.219857 12.433 0.202717C10.4355 0.625291 8.63072 1.68903 7.29352 3.23199C5.95632 4.77495 5.15994 6.7126 5.02563 8.74995C5.01709 8.74995 0 8.96878 0 13.75C0.00151688 15.0756 0.528788 16.3465 1.46614 17.2838C2.40349 18.2212 3.67438 18.7484 5 18.75H18.125C18.2908 18.75 18.4497 18.6841 18.5669 18.5669C18.6842 18.4497 18.75 18.2907 18.75 18.125C18.75 17.9592 18.6842 17.8002 18.5669 17.683C18.4497 17.5658 18.2908 17.5 18.125 17.5H5C4.00544 17.5 3.05161 17.1049 2.34835 16.4016C1.64509 15.6983 1.25 14.7445 1.25 13.75C1.25 12.7554 1.64509 11.8016 2.34835 11.0983C3.05161 10.395 4.00544 9.99995 5 9.99995C5.62074 10.0329 6.22816 10.1925 6.7849 10.469C7.34164 10.7455 7.83592 11.133 8.23731 11.6076C8.34267 11.7293 8.4866 11.811 8.64504 11.8392C8.80347 11.8675 8.96679 11.8404 9.10767 11.7626C9.1752 11.7158 9.23281 11.6561 9.27719 11.587C9.32156 11.5178 9.35182 11.4406 9.36623 11.3597C9.38063 11.2788 9.3789 11.1958 9.36113 11.1156C9.34335 11.0354 9.30989 10.9595 9.26267 10.8923C8.53372 9.89698 7.47397 9.19403 6.27355 8.90953C6.36977 7.17238 7.02221 5.51226 8.13448 4.17442C9.24676 2.83659 10.7599 1.89202 12.4502 1.48026C14.1406 1.0685 15.9186 1.21139 17.5216 1.88782C19.1245 2.56426 20.4673 3.73836 21.3517 5.23665C19.861 5.62896 18.5473 6.51476 17.6248 7.74958C17.5732 7.81432 17.5354 7.8889 17.5136 7.96877C17.4919 8.04863 17.4867 8.1321 17.4984 8.21405C17.51 8.29599 17.5383 8.3747 17.5814 8.44533C17.6246 8.51597 17.6817 8.57705 17.7493 8.62483C17.8858 8.71274 18.0494 8.74855 18.2101 8.72568C18.3709 8.70282 18.518 8.62281 18.6245 8.50032C19.1404 7.79299 19.8182 7.21956 20.6012 6.82803C21.3842 6.4365 22.2496 6.23827 23.125 6.24995C24.3056 6.24993 25.4563 6.6214 26.4141 7.31173C27.3718 8.00206 28.0881 8.97625 28.4614 10.0963C28.8347 11.2163 28.8461 12.4255 28.494 13.5524C28.1419 14.6793 27.4442 15.6668 26.4996 16.3751C26.3671 16.4746 26.2795 16.6228 26.2561 16.7869C26.2328 16.9511 26.2756 17.1177 26.3751 17.2503C26.4747 17.3829 26.6228 17.4705 26.787 17.4938C26.9511 17.5172 27.1178 17.4744 27.2504 17.3748C28.1072 16.7373 28.8023 15.9075 29.2799 14.9522C29.7575 13.997 30.0041 12.9429 30 11.875C30 5.22933 22.8269 5.00575 22.6672 5.01796Z" fill="#286EF1"/>
<path d="M21.3849 15.2371C21.1793 15.4971 19.3751 17.8216 19.3751 19.375C19.3751 21.3318 20.3095 22.5 21.8751 22.5C23.4406 22.5 24.3751 21.3318 24.3751 19.375C24.3751 17.8216 22.5709 15.4971 22.3652 15.2371C22.3045 15.1666 22.2292 15.11 22.1447 15.0712C22.0601 15.0324 21.9681 15.0123 21.8751 15.0123C21.782 15.0123 21.69 15.0324 21.6055 15.0712C21.5209 15.11 21.4457 15.1666 21.3849 15.2371ZM21.8751 21.25C21.5659 21.25 20.6251 21.25 20.6251 19.375C20.6251 18.717 21.2714 17.5628 21.8754 16.6815C22.479 17.5616 23.1251 18.7158 23.1251 19.375C23.1251 21.25 22.1842 21.25 21.8751 21.25Z" fill="#286EF1"/>
<path d="M6.98578 23.3947C6.57654 23.9874 5.625 25.451 5.625 26.25C5.625 26.7473 5.82254 27.2242 6.17417 27.5758C6.52581 27.9274 7.00272 28.125 7.5 28.125C7.99728 28.125 8.47419 27.9274 8.82583 27.5758C9.17746 27.2242 9.375 26.7473 9.375 26.25C9.375 25.451 8.42346 23.9874 8.01422 23.3947C7.9537 23.3159 7.87585 23.252 7.78668 23.208C7.69751 23.164 7.59942 23.1411 7.5 23.1411C7.40058 23.1411 7.30249 23.164 7.21332 23.208C7.12415 23.252 7.0463 23.3159 6.98578 23.3947V23.3947ZM7.5 26.875C7.33439 26.8748 7.17559 26.809 7.05842 26.692C6.94126 26.5749 6.87529 26.4162 6.875 26.2506C7.0108 25.7729 7.22177 25.3198 7.5 24.9084C7.77832 25.3198 7.9893 25.7728 8.125 26.2506C8.12465 26.4162 8.05868 26.5749 7.94152 26.6919C7.82437 26.809 7.6656 26.8748 7.5 26.875V26.875Z" fill="#286EF1"/>
<path d="M16.3608 25.2697C15.9515 25.8624 15 27.326 15 28.125C15 28.6223 15.1975 29.0992 15.5492 29.4508C15.9008 29.8024 16.3777 30 16.875 30C17.3723 30 17.8492 29.8024 18.2008 29.4508C18.5525 29.0992 18.75 28.6223 18.75 28.125C18.75 27.326 17.7985 25.8624 17.3892 25.2697C17.3287 25.1909 17.2508 25.127 17.1617 25.083C17.0725 25.039 16.9744 25.0161 16.875 25.0161C16.7756 25.0161 16.6775 25.039 16.5883 25.083C16.4992 25.127 16.4213 25.1909 16.3608 25.2697ZM16.875 28.75C16.7094 28.7498 16.5506 28.684 16.4334 28.567C16.3163 28.4499 16.2503 28.2912 16.25 28.1256C16.3858 27.6479 16.5968 27.1948 16.875 26.7834C17.1533 27.1948 17.3643 27.6478 17.5 28.1256C17.4997 28.2912 17.4337 28.4499 17.3165 28.5669C17.1994 28.684 17.0406 28.7498 16.875 28.75V28.75Z" fill="#286EF1"/>
<path d="M11.9857 19.6448C11.5765 20.2374 10.6249 21.701 10.6249 22.5C10.6249 22.9973 10.8225 23.4742 11.1741 23.8258C11.5257 24.1774 12.0027 24.375 12.4999 24.375C12.9972 24.375 13.4741 24.1774 13.8258 23.8258C14.1774 23.4742 14.3749 22.9973 14.3749 22.5C14.3749 21.701 13.4234 20.2374 13.0142 19.6448C12.9536 19.5659 12.8758 19.502 12.7866 19.458C12.6974 19.414 12.5994 19.3911 12.4999 19.3911C12.4005 19.3911 12.3024 19.414 12.2133 19.458C12.1241 19.502 12.0462 19.5659 11.9857 19.6448V19.6448ZM12.4999 23.125C12.3343 23.1248 12.1755 23.059 12.0584 22.942C11.9412 22.8249 11.8752 22.6662 11.8749 22.5006C12.0107 22.0229 12.2217 21.5698 12.4999 21.1584C12.7783 21.5698 12.9892 22.0228 13.1249 22.5006C13.1246 22.6662 13.0586 22.8249 12.9415 22.9419C12.8243 23.059 12.6655 23.1248 12.4999 23.125V23.125Z" fill="#286EF1"/>
</g>
<defs>
<clipPath id="clip0_349_741">
<rect width="30" height="30" fill="white"/>
</clipPath>
</defs>
</svg>
