<svg width="45" height="60" viewBox="0 0 45 60" fill="none" xmlns="http://www.w3.org/2000/svg">
<path d="M14.5873 30.525C15.9873 30.525 17.2206 30.3583 18.2873 30.025C19.3706 29.675 20.2706 29.1917 20.9873 28.575C21.7206 27.9417 22.2706 27.1917 22.6373 26.325C23.004 25.4583 23.1873 24.5 23.1873 23.45C23.1873 21.3167 22.4873 19.7083 21.0873 18.625C19.6873 17.5417 17.5873 17 14.7873 17H9.48731V30.525H14.5873ZM31.1373 49H26.8373C25.954 49 25.304 48.6583 24.8873 47.975L15.5873 35.175C15.304 34.775 14.9956 34.4917 14.6623 34.325C14.3456 34.1417 13.8456 34.05 13.1623 34.05H9.48731V49H4.66231V13.175H14.7873C17.054 13.175 19.0123 13.4083 20.6623 13.875C22.3123 14.325 23.6706 14.9833 24.7373 15.85C25.8206 16.7167 26.6206 17.7667 27.1373 19C27.654 20.2167 27.9123 21.5833 27.9123 23.1C27.9123 24.3667 27.7123 25.55 27.3123 26.65C26.9123 27.75 26.329 28.7417 25.5623 29.625C24.8123 30.4917 23.8873 31.2333 22.7873 31.85C21.704 32.4667 20.4706 32.9333 19.0873 33.25C19.704 33.6 20.2373 34.1083 20.6873 34.775L31.1373 49ZM40.36 13.175V27.475C40.36 28.225 40.3433 28.9583 40.31 29.675C40.2766 30.3917 40.235 31.1167 40.185 31.85C40.135 32.5667 40.0683 33.3083 39.985 34.075C39.9183 34.825 39.835 35.6333 39.735 36.5H36.735C36.635 35.6333 36.5433 34.825 36.46 34.075C36.3933 33.3083 36.335 32.5667 36.285 31.85C36.235 31.1167 36.1933 30.3917 36.16 29.675C36.1266 28.9583 36.11 28.225 36.11 27.475V13.175H40.36ZM35.035 46.25C35.035 45.8167 35.11 45.4083 35.26 45.025C35.4266 44.6417 35.6516 44.3083 35.935 44.025C36.2183 43.7417 36.5433 43.5167 36.91 43.35C37.2933 43.1833 37.71 43.1 38.16 43.1C38.5933 43.1 38.9933 43.1833 39.36 43.35C39.7433 43.5167 40.0766 43.7417 40.36 44.025C40.6433 44.3083 40.8683 44.6417 41.035 45.025C41.2016 45.4083 41.285 45.8167 41.285 46.25C41.285 46.7 41.2016 47.1167 41.035 47.5C40.8683 47.8667 40.6433 48.1917 40.36 48.475C40.0766 48.7583 39.7433 48.975 39.36 49.125C38.9933 49.2917 38.5933 49.375 38.16 49.375C37.71 49.375 37.2933 49.2917 36.91 49.125C36.5433 48.975 36.2183 48.7583 35.935 48.475C35.6516 48.1917 35.4266 47.8667 35.26 47.5C35.11 47.1167 35.035 46.7 35.035 46.25Z" fill="#FEFEFE"/>
</svg>
