<svg width="55" height="70" viewBox="0 0 55 70" fill="none" xmlns="http://www.w3.org/2000/svg">
<path d="M19.5873 35.525C20.9873 35.525 22.2206 35.3583 23.2873 35.025C24.3706 34.675 25.2706 34.1917 25.9873 33.575C26.7206 32.9417 27.2706 32.1917 27.6373 31.325C28.004 30.4583 28.1873 29.5 28.1873 28.45C28.1873 26.3167 27.4873 24.7083 26.0873 23.625C24.6873 22.5417 22.5873 22 19.7873 22H14.4873V35.525H19.5873ZM36.1373 54H31.8373C30.954 54 30.304 53.6583 29.8873 52.975L20.5873 40.175C20.304 39.775 19.9956 39.4917 19.6623 39.325C19.3456 39.1417 18.8456 39.05 18.1623 39.05H14.4873V54H9.66231V18.175H19.7873C22.054 18.175 24.0123 18.4083 25.6623 18.875C27.3123 19.325 28.6706 19.9833 29.7373 20.85C30.8206 21.7167 31.6206 22.7667 32.1373 24C32.654 25.2167 32.9123 26.5833 32.9123 28.1C32.9123 29.3667 32.7123 30.55 32.3123 31.65C31.9123 32.75 31.329 33.7417 30.5623 34.625C29.8123 35.4917 28.8873 36.2333 27.7873 36.85C26.704 37.4667 25.4706 37.9333 24.0873 38.25C24.704 38.6 25.2373 39.1083 25.6873 39.775L36.1373 54ZM45.36 18.175V32.475C45.36 33.225 45.3433 33.9583 45.31 34.675C45.2766 35.3917 45.235 36.1167 45.185 36.85C45.135 37.5667 45.0683 38.3083 44.985 39.075C44.9183 39.825 44.835 40.6333 44.735 41.5H41.735C41.635 40.6333 41.5433 39.825 41.46 39.075C41.3933 38.3083 41.335 37.5667 41.285 36.85C41.235 36.1167 41.1933 35.3917 41.16 34.675C41.1266 33.9583 41.11 33.225 41.11 32.475V18.175H45.36ZM40.035 51.25C40.035 50.8167 40.11 50.4083 40.26 50.025C40.4266 49.6417 40.6516 49.3083 40.935 49.025C41.2183 48.7417 41.5433 48.5167 41.91 48.35C42.2933 48.1833 42.71 48.1 43.16 48.1C43.5933 48.1 43.9933 48.1833 44.36 48.35C44.7433 48.5167 45.0766 48.7417 45.36 49.025C45.6433 49.3083 45.8683 49.6417 46.035 50.025C46.2016 50.4083 46.285 50.8167 46.285 51.25C46.285 51.7 46.2016 52.1167 46.035 52.5C45.8683 52.8667 45.6433 53.1917 45.36 53.475C45.0766 53.7583 44.7433 53.975 44.36 54.125C43.9933 54.2917 43.5933 54.375 43.16 54.375C42.71 54.375 42.2933 54.2917 41.91 54.125C41.5433 53.975 41.2183 53.7583 40.935 53.475C40.6516 53.1917 40.4266 52.8667 40.26 52.5C40.11 52.1167 40.035 51.7 40.035 51.25Z" fill="#FEFEFE"/>
</svg>
