<svg width="165" height="60" viewBox="0 0 165 60" fill="none" xmlns="http://www.w3.org/2000/svg">
<path d="M16.2 29.44C18.44 29.44 20.4133 29.1733 22.12 28.64C23.8533 28.08 25.2933 27.3067 26.44 26.32C27.6133 25.3067 28.4933 24.1067 29.08 22.72C29.6667 21.3333 29.96 19.8 29.96 18.12C29.96 14.7067 28.84 12.1333 26.6 10.4C24.36 8.66666 21 7.8 16.52 7.8H8.04V29.44H16.2ZM42.68 59H35.8C34.3867 59 33.3467 58.4533 32.68 57.36L17.8 36.88C17.3467 36.24 16.8533 35.7867 16.32 35.52C15.8133 35.2267 15.0133 35.08 13.92 35.08H8.04V59H0.320001V1.68H16.52C20.1467 1.68 23.28 2.05333 25.92 2.8C28.56 3.52 30.7333 4.57333 32.44 5.96C34.1733 7.34666 35.4533 9.02666 36.28 11C37.1067 12.9467 37.52 15.1333 37.52 17.56C37.52 19.5867 37.2 21.48 36.56 23.24C35.92 25 34.9867 26.5867 33.76 28C32.56 29.3867 31.08 30.5733 29.32 31.56C27.5867 32.5467 25.6133 33.2933 23.4 33.8C24.3867 34.36 25.24 35.1733 25.96 36.24L42.68 59ZM55.8194 18.48V59H48.6994V18.48H55.8194ZM57.3394 5.76C57.3394 6.45333 57.1927 7.10666 56.8994 7.72C56.6327 8.30666 56.2594 8.84 55.7794 9.32C55.326 9.77333 54.7794 10.1333 54.1394 10.4C53.526 10.6667 52.8727 10.8 52.1794 10.8C51.486 10.8 50.8327 10.6667 50.2194 10.4C49.6327 10.1333 49.1127 9.77333 48.6594 9.32C48.206 8.84 47.846 8.30666 47.5794 7.72C47.3127 7.10666 47.1794 6.45333 47.1794 5.76C47.1794 5.06666 47.3127 4.41333 47.5794 3.8C47.846 3.16 48.206 2.61333 48.6594 2.16C49.1127 1.68 49.6327 1.30666 50.2194 1.04C50.8327 0.773329 51.486 0.639996 52.1794 0.639996C52.8727 0.639996 53.526 0.773329 54.1394 1.04C54.7794 1.30666 55.326 1.68 55.7794 2.16C56.2594 2.61333 56.6327 3.16 56.8994 3.8C57.1927 4.41333 57.3394 5.06666 57.3394 5.76ZM93.9681 28.12C92.6348 26.3333 91.1948 25.0933 89.6481 24.4C88.1015 23.68 86.3681 23.32 84.4481 23.32C80.6881 23.32 77.7948 24.6667 75.7681 27.36C73.7415 30.0533 72.7281 33.8933 72.7281 38.88C72.7281 41.52 72.9548 43.7867 73.4081 45.68C73.8615 47.5467 74.5281 49.0933 75.4081 50.32C76.2881 51.52 77.3681 52.4 78.6481 52.96C79.9281 53.52 81.3815 53.8 83.0081 53.8C85.3548 53.8 87.3948 53.2667 89.1281 52.2C90.8881 51.1333 92.5015 49.6267 93.9681 47.68V28.12ZM101.088 0.079998V59H96.8481C95.8348 59 95.1948 58.5067 94.9281 57.52L94.2881 52.6C92.5548 54.68 90.5815 56.36 88.3681 57.64C86.1548 58.92 83.5948 59.56 80.6881 59.56C78.3681 59.56 76.2615 59.12 74.3681 58.24C72.4748 57.3333 70.8615 56.0133 69.5281 54.28C68.1948 52.5467 67.1681 50.3867 66.4481 47.8C65.7281 45.2133 65.3681 42.24 65.3681 38.88C65.3681 35.8933 65.7681 33.12 66.5681 30.56C67.3681 27.9733 68.5148 25.7333 70.0081 23.84C71.5015 21.9467 73.3281 20.4667 75.4881 19.4C77.6748 18.3067 80.1281 17.76 82.8481 17.76C85.3281 17.76 87.4481 18.1867 89.2081 19.04C90.9948 19.8667 92.5815 21.0267 93.9681 22.52V0.079998H101.088ZM139.504 34.32C139.504 32.6667 139.264 31.16 138.784 29.8C138.33 28.4133 137.65 27.2267 136.744 26.24C135.864 25.2267 134.784 24.4533 133.504 23.92C132.224 23.36 130.77 23.08 129.144 23.08C125.73 23.08 123.024 24.08 121.024 26.08C119.05 28.0533 117.824 30.8 117.344 34.32H139.504ZM145.264 53.32C144.384 54.3867 143.33 55.32 142.104 56.12C140.877 56.8933 139.557 57.5333 138.144 58.04C136.757 58.5467 135.317 58.92 133.824 59.16C132.33 59.4267 130.85 59.56 129.384 59.56C126.584 59.56 123.997 59.0933 121.624 58.16C119.277 57.2 117.237 55.8133 115.504 54C113.797 52.16 112.464 49.8933 111.504 47.2C110.544 44.5067 110.064 41.4133 110.064 37.92C110.064 35.0933 110.49 32.4533 111.344 30C112.224 27.5467 113.477 25.4267 115.104 23.64C116.73 21.8267 118.717 20.4133 121.064 19.4C123.41 18.36 126.05 17.84 128.984 17.84C131.41 17.84 133.65 18.2533 135.704 19.08C137.784 19.88 139.57 21.0533 141.064 22.6C142.584 24.12 143.77 26.0133 144.624 28.28C145.477 30.52 145.904 33.08 145.904 35.96C145.904 37.08 145.784 37.8267 145.544 38.2C145.304 38.5733 144.85 38.76 144.184 38.76H117.104C117.184 41.32 117.53 43.5467 118.144 45.44C118.784 47.3333 119.664 48.92 120.784 50.2C121.904 51.4533 123.237 52.4 124.784 53.04C126.33 53.6533 128.064 53.96 129.984 53.96C131.77 53.96 133.304 53.76 134.584 53.36C135.89 52.9333 137.01 52.48 137.944 52C138.877 51.52 139.65 51.08 140.264 50.68C140.904 50.2533 141.45 50.04 141.904 50.04C142.49 50.04 142.944 50.2667 143.264 50.72L145.264 53.32ZM163.259 1.68V24.56C163.259 25.76 163.233 26.9333 163.179 28.08C163.126 29.2267 163.059 30.3867 162.979 31.56C162.899 32.7067 162.793 33.8933 162.659 35.12C162.553 36.32 162.419 37.6133 162.259 39H157.459C157.299 37.6133 157.153 36.32 157.019 35.12C156.913 33.8933 156.819 32.7067 156.739 31.56C156.659 30.3867 156.593 29.2267 156.539 28.08C156.486 26.9333 156.459 25.76 156.459 24.56V1.68H163.259ZM154.739 54.6C154.739 53.9067 154.859 53.2533 155.099 52.64C155.366 52.0267 155.726 51.4933 156.179 51.04C156.633 50.5867 157.153 50.2267 157.739 49.96C158.353 49.6933 159.019 49.56 159.739 49.56C160.433 49.56 161.073 49.6933 161.659 49.96C162.273 50.2267 162.806 50.5867 163.259 51.04C163.713 51.4933 164.073 52.0267 164.339 52.64C164.606 53.2533 164.739 53.9067 164.739 54.6C164.739 55.32 164.606 55.9867 164.339 56.6C164.073 57.1867 163.713 57.7067 163.259 58.16C162.806 58.6133 162.273 58.96 161.659 59.2C161.073 59.4667 160.433 59.6 159.739 59.6C159.019 59.6 158.353 59.4667 157.739 59.2C157.153 58.96 156.633 58.6133 156.179 58.16C155.726 57.7067 155.366 57.1867 155.099 56.6C154.859 55.9867 154.739 55.32 154.739 54.6Z" fill="#FEFEFE"/>
</svg>
