<svg width="30" height="30" viewBox="0 0 30 30" fill="none" xmlns="http://www.w3.org/2000/svg">
<path d="M28.3838 14.1163L19.6338 5.36627C19.398 5.13857 19.0823 5.01258 18.7545 5.01543C18.4268 5.01828 18.1132 5.14974 17.8815 5.3815C17.6497 5.61326 17.5183 5.92677 17.5154 6.25452C17.5126 6.58227 17.6386 6.89802 17.8663 7.13377L24.4825 13.75H2.5C2.16848 13.75 1.85054 13.8817 1.61612 14.1161C1.3817 14.3506 1.25 14.6685 1.25 15C1.25 15.3315 1.3817 15.6495 1.61612 15.8839C1.85054 16.1183 2.16848 16.25 2.5 16.25H24.4825L17.8663 22.8663C17.7469 22.9816 17.6516 23.1195 17.5861 23.272C17.5206 23.4245 17.4861 23.5886 17.4847 23.7545C17.4832 23.9205 17.5149 24.0851 17.5777 24.2387C17.6406 24.3923 17.7334 24.5319 17.8508 24.6493C17.9681 24.7666 18.1077 24.8595 18.2613 24.9223C18.4149 24.9852 18.5795 25.0168 18.7455 25.0153C18.9115 25.0139 19.0755 24.9794 19.228 24.9139C19.3805 24.8484 19.5184 24.7532 19.6338 24.6338L28.3838 15.8838C28.6181 15.6494 28.7497 15.3315 28.7497 15C28.7497 14.6686 28.6181 14.3507 28.3838 14.1163Z" fill="black"/>
</svg>
