<svg width="30" height="30" viewBox="0 0 30 30" fill="none" xmlns="http://www.w3.org/2000/svg">
<circle cx="10.5" cy="11.5" r="5.5" fill="#F3C51C"/>
<path d="M10.8131 4.81102C10.89 4.81102 10.9662 4.79586 11.0373 4.76641C11.1084 4.73697 11.173 4.69381 11.2274 4.6394C11.2818 4.58499 11.325 4.5204 11.3544 4.44931C11.3838 4.37822 11.399 4.30202 11.399 4.22508V2.25896C11.399 2.10356 11.3373 1.95453 11.2274 1.84464C11.1175 1.73476 10.9685 1.67303 10.8131 1.67303C10.6577 1.67303 10.5086 1.73476 10.3987 1.84464C10.2889 1.95453 10.2271 2.10356 10.2271 2.25896V4.22508C10.2271 4.38048 10.2889 4.52951 10.3987 4.6394C10.5086 4.74928 10.6577 4.81102 10.8131 4.81102Z" fill="#F3C51C"/>
<path d="M6.17513 5.625C6.21333 5.69217 6.26443 5.75113 6.3255 5.79847C6.38657 5.84582 6.4564 5.88062 6.53098 5.90086C6.60555 5.92111 6.68339 5.9264 6.76002 5.91644C6.83665 5.90648 6.91055 5.88146 6.97747 5.84283C7.0444 5.80419 7.10301 5.7527 7.14995 5.69131C7.19689 5.62993 7.23122 5.55987 7.25097 5.48516C7.27073 5.41045 7.2755 5.33258 7.26504 5.25602C7.25457 5.17946 7.22906 5.10572 7.18998 5.03906L6.20695 3.33633C6.16848 3.26969 6.11726 3.21128 6.05621 3.16443C5.99516 3.11759 5.92549 3.08323 5.85116 3.06331C5.70105 3.02309 5.54112 3.04414 5.40653 3.12184C5.27195 3.19954 5.17374 3.32752 5.13352 3.47763C5.09329 3.62774 5.11435 3.78768 5.19205 3.92226L6.17513 5.625Z" fill="#F3C51C"/>
<path d="M1.66313 7.87992L3.36586 8.86301C3.50037 8.93949 3.65966 8.95965 3.80898 8.91911C3.95831 8.87857 4.08553 8.78062 4.1629 8.64662C4.24026 8.51262 4.26149 8.35347 4.22194 8.20388C4.18239 8.05429 4.08528 7.92642 3.9518 7.84817L2.24906 6.86508C2.1824 6.826 2.10867 6.80049 2.03211 6.79002C1.95554 6.77956 1.87767 6.78433 1.80296 6.80409C1.72826 6.82384 1.65819 6.85817 1.59681 6.90511C1.53543 6.95205 1.48393 7.01066 1.4453 7.07758C1.40666 7.1445 1.38164 7.21841 1.37168 7.29504C1.36172 7.37166 1.36701 7.44951 1.38726 7.52408C1.40751 7.59865 1.4423 7.66849 1.48965 7.72956C1.53699 7.79063 1.59595 7.84173 1.66313 7.87992V7.87992Z" fill="#F3C51C"/>
<path d="M4.13805 12.4863C4.13805 12.3309 4.07631 12.1819 3.96643 12.072C3.85654 11.9621 3.70751 11.9004 3.55211 11.9004H1.58594C1.43054 11.9004 1.2815 11.9621 1.17162 12.072C1.06173 12.1819 1 12.3309 1 12.4863C1 12.6417 1.06173 12.7908 1.17162 12.9006C1.2815 13.0105 1.43054 13.0723 1.58594 13.0723H3.55211C3.70751 13.0723 3.85654 13.0105 3.96643 12.9006C4.07631 12.7908 4.13805 12.6417 4.13805 12.4863Z" fill="#F3C51C"/>
<path d="M5.58501 17.0934C5.71959 17.0157 5.8178 16.8877 5.85802 16.7376C5.89824 16.5875 5.87719 16.4276 5.79949 16.293C5.72179 16.1584 5.59381 16.0602 5.4437 16.02C5.29359 15.9797 5.13365 16.0008 4.99907 16.0785L3.29633 17.0616C3.22916 17.0998 3.1702 17.1509 3.12286 17.212C3.07551 17.273 3.04072 17.3429 3.02047 17.4174C3.00022 17.492 2.99493 17.5698 3.00489 17.6465C3.01485 17.7231 3.03987 17.797 3.0785 17.8639C3.11714 17.9308 3.16864 17.9895 3.23002 18.0364C3.2914 18.0833 3.36146 18.1177 3.43617 18.1374C3.51088 18.1572 3.58875 18.162 3.66531 18.1515C3.74188 18.141 3.81561 18.1155 3.88227 18.0764L5.58501 17.0934Z" fill="#F3C51C"/>
<path d="M14.6506 5.83928C14.7172 5.87783 14.7908 5.90287 14.8671 5.91296C14.9434 5.92306 15.021 5.91801 15.0953 5.89811C15.1697 5.87821 15.2394 5.84384 15.3004 5.79698C15.3615 5.75012 15.4127 5.69168 15.4512 5.625L16.4342 3.92226C16.5107 3.78776 16.5308 3.62846 16.4903 3.47914C16.4498 3.32982 16.3518 3.20259 16.2178 3.12523C16.0838 3.04786 15.9247 3.02664 15.7751 3.06619C15.6255 3.10574 15.4976 3.20285 15.4194 3.33633L14.4361 5.03906C14.3585 5.17363 14.3374 5.33352 14.3777 5.48358C14.4179 5.63364 14.5161 5.76158 14.6506 5.83928V5.83928Z" fill="#F3C51C"/>
<path d="M22.3509 19.7912C22.5804 18.6334 22.3976 17.4318 21.8343 16.3946C21.2711 15.3574 20.3627 14.5498 19.2667 14.1118C18.1706 13.6738 16.9559 13.633 15.833 13.9964C14.71 14.3598 13.7495 15.1045 13.1178 16.1016C12.1539 15.7308 11.0841 15.7457 10.131 16.1434C9.17778 16.541 8.41453 17.2907 7.99986 18.2365C7.30757 18.1238 6.59943 18.1558 5.9201 18.3303C5.24076 18.5049 4.60495 18.8183 4.05274 19.2508C3.50054 19.6833 3.04392 20.2255 2.71165 20.8432C2.37939 21.4609 2.1787 22.1408 2.12222 22.8399C2.06575 23.539 2.15472 24.2423 2.38352 24.9053C2.61232 25.5683 2.976 26.1768 3.45162 26.6923C3.92725 27.2078 4.50451 27.6192 5.14702 27.9006C5.78953 28.1819 6.48336 28.3271 7.18477 28.327H21.1555C22.2051 28.327 23.2192 27.9476 24.0112 27.2588C24.8031 26.5701 25.3194 25.6183 25.465 24.5789C25.6105 23.5395 25.3755 22.4825 24.8032 21.6027C24.231 20.7228 23.36 20.0795 22.3508 19.7912H22.3509ZM21.1556 27.1551H7.18477C6.62792 27.1546 6.07762 27.0351 5.57075 26.8045C5.06389 26.5739 4.61219 26.2376 4.24593 25.8182C3.87967 25.3987 3.60733 24.9058 3.44717 24.3725C3.287 23.8392 3.24271 23.2778 3.31728 22.726C3.39184 22.1741 3.58352 21.6446 3.87948 21.173C4.17544 20.7013 4.56883 20.2983 5.03327 19.9911C5.49771 19.6839 6.02246 19.4796 6.57234 19.3918C7.12222 19.304 7.68452 19.3348 8.22152 19.4821C8.37072 19.523 8.53006 19.5033 8.66478 19.4273C8.7995 19.3512 8.89867 19.2249 8.94064 19.076C9.0576 18.6617 9.26715 18.2793 9.55347 17.9578C9.8398 17.6362 10.1954 17.3839 10.5935 17.2199C10.9916 17.0559 11.4217 16.9845 11.8514 17.011C12.2812 17.0375 12.6993 17.1613 13.0741 17.373C13.1439 17.4125 13.221 17.4373 13.3006 17.4458C13.3803 17.4542 13.4609 17.4463 13.5374 17.4224C13.6139 17.3985 13.6847 17.3592 13.7453 17.3069C13.806 17.2546 13.8553 17.1904 13.8902 17.1182C14.3208 16.2284 15.0742 15.5361 15.9972 15.1822C16.9202 14.8283 17.9434 14.8395 18.8585 15.2134C19.7736 15.5873 20.5118 16.2958 20.9228 17.1948C21.3339 18.0938 21.387 19.1156 21.0712 20.0524C21.0434 20.1347 21.0342 20.2222 21.0444 20.3085C21.0545 20.3948 21.0837 20.4778 21.1299 20.5514C21.1761 20.625 21.2381 20.6874 21.3114 20.7341C21.3847 20.7808 21.4674 20.8106 21.5537 20.8214C22.3565 20.9221 23.0907 21.3251 23.6068 21.9484C24.1228 22.5716 24.3818 23.3681 24.331 24.1756C24.2802 24.9832 23.9234 25.741 23.3334 26.2946C22.7433 26.8482 21.9643 27.1561 21.1552 27.1554L21.1556 27.1551Z" fill="#286EF1"/>
<path d="M26.8438 12.637C27.0828 11.4302 26.8737 10.1777 26.2558 9.11395C25.6379 8.05019 24.6535 7.24809 23.4868 6.85781C22.3202 6.46753 21.0513 6.51582 19.9177 6.99364C18.7841 7.47146 17.8634 8.34605 17.3282 9.45369C17.2929 9.52315 17.2718 9.59895 17.2661 9.67666C17.2605 9.75436 17.2704 9.83242 17.2952 9.90625C17.3201 9.98008 17.3595 10.0482 17.411 10.1067C17.4625 10.1651 17.5252 10.2127 17.5953 10.2466C17.6654 10.2805 17.7416 10.3002 17.8194 10.3043C17.8973 10.3084 17.9751 10.297 18.0484 10.2707C18.1218 10.2443 18.1891 10.2037 18.2465 10.151C18.304 10.0984 18.3503 10.0348 18.3829 9.96399C18.8134 9.07417 19.5669 8.38186 20.4899 8.02797C21.4129 7.67409 22.436 7.68523 23.3511 8.05913C24.2662 8.43303 25.0044 9.14158 25.4154 10.0406C25.8265 10.9396 25.8796 11.9614 25.5638 12.8981C25.536 12.9805 25.5268 13.068 25.537 13.1543C25.5471 13.2406 25.5764 13.3235 25.6226 13.3972C25.6688 13.4708 25.7307 13.5332 25.804 13.5799C25.8773 13.6266 25.9601 13.6564 26.0463 13.6672C26.8492 13.7679 27.5834 14.1709 28.0994 14.7941C28.6155 15.4173 28.8745 16.2139 28.8237 17.0214C28.7729 17.8289 28.4161 18.5867 27.826 19.1404C27.236 19.694 26.457 20.0018 25.6479 20.0012C25.4925 20.0012 25.3435 20.0629 25.2336 20.1728C25.1237 20.2827 25.062 20.4317 25.062 20.5871C25.062 20.7425 25.1237 20.8915 25.2336 21.0014C25.3435 21.1113 25.4925 21.173 25.6479 21.173C26.6974 21.173 27.7116 20.7936 28.5035 20.1048C29.2954 19.416 29.8117 18.4643 29.9572 17.4249C30.1028 16.3855 29.8678 15.3285 29.2955 14.4487C28.7233 13.5689 27.8523 12.9256 26.8432 12.6372L26.8438 12.637Z" fill="#286EF1"/>
</svg>

