<?xml version="1.0" encoding="utf-8"?>
<!-- Generator: Adobe Illustrator 26.2.1, SVG Export Plug-In . SVG Version: 6.00 Build 0)  -->
<svg version="1.1" xmlns="http://www.w3.org/2000/svg" xmlns:xlink="http://www.w3.org/1999/xlink" x="0px" y="0px"
	 viewBox="0 0 30 30" style="enable-background:new 0 0 30 30;" xml:space="preserve">
<style type="text/css">
	.st0{display:none;}
	.st1{display:inline;}
	.st2{fill:#286EF1;}
	.st3{clip-path:url(#SVGID_00000069390082606671824050000005807242041246577287_);}
	.st4{fill:#FFD93B;}
	.st5{fill:#F4C534;}
	.st6{fill:#FFD83B;}
</style>
<g id="Layer_1" class="st0">
	<g id="Layer_3" class="st1">
	</g>
</g>
<g id="Layer_2">
	<path class="st2" d="M25.8,11c0.2-1.2,0-2.5-0.6-3.5c-0.6-1.1-1.6-1.9-2.8-2.3c-1.2-0.4-2.4-0.3-3.6,0.1s-2.1,1.4-2.6,2.5
		c0,0.1-0.1,0.1-0.1,0.2c0,0.1,0,0.2,0,0.2c0,0.1,0.1,0.1,0.1,0.2c0.1,0.1,0.1,0.1,0.2,0.1c0.1,0,0.1,0.1,0.2,0.1c0.1,0,0.2,0,0.2,0
		c0.1,0,0.1-0.1,0.2-0.1c0.1-0.1,0.1-0.1,0.1-0.2c0.4-0.9,1.2-1.6,2.1-1.9c0.9-0.4,1.9-0.3,2.9,0c0.9,0.4,1.7,1.1,2.1,2
		c0.4,0.9,0.5,1.9,0.1,2.9c0,0.1,0,0.2,0,0.3c0,0.1,0,0.2,0.1,0.2c0,0.1,0.1,0.1,0.2,0.2c0.1,0,0.2,0.1,0.2,0.1
		c0.8,0.1,1.5,0.5,2.1,1.1c0.5,0.6,0.8,1.4,0.7,2.2c-0.1,0.8-0.4,1.6-1,2.1c-0.6,0.6-1.4,0.9-2.2,0.9c-0.2,0-0.3,0.1-0.4,0.2
		c-0.1,0.1-0.2,0.3-0.2,0.4c0,0.2,0.1,0.3,0.2,0.4c0.1,0.1,0.3,0.2,0.4,0.2c1,0,2.1-0.4,2.9-1.1c0.8-0.7,1.3-1.6,1.5-2.7
		c0.1-1-0.1-2.1-0.7-3C27.7,11.9,26.8,11.3,25.8,11L25.8,11z"/>
	<g>
		<defs>
			<rect id="SVGID_1_" x="2.9" y="3.3" width="12" height="12"/>
		</defs>
		<clipPath id="SVGID_00000140694718707089668010000012013804933193625262_">
			<use xlink:href="#SVGID_1_"  style="overflow:visible;"/>
		</clipPath>
		<g style="clip-path:url(#SVGID_00000140694718707089668010000012013804933193625262_);">
			<path class="st4" d="M11.4,12.4c-3,0-5.5-2.5-5.5-5.5c0-1.3,0.5-2.6,1.3-3.5C4.7,4.1,2.9,6.4,2.9,9.2c0,3.4,2.8,6.1,6.1,6.1
				c2.7,0,5.1-1.8,5.9-4.3C14,11.9,12.8,12.4,11.4,12.4z"/>
			<path class="st5" d="M5.3,4.4C4.5,5.4,4,6.7,4,8.2c0,3.4,2.8,6.1,6.1,6.1c1.4,0,2.7-0.5,3.8-1.3c-1.1,1.4-2.9,2.3-4.8,2.3
				c-3.4,0-6.1-2.8-6.1-6.1C2.9,7.2,3.9,5.5,5.3,4.4z"/>
			<path class="st6" d="M11.9,5.7L11.2,7L9.8,7.2l1,1l-0.2,1.4L11.9,9l1.3,0.7l-0.2-1.4l1-1L12.5,7L11.9,5.7z"/>
			<path class="st6" d="M8.3,5.3L8,6L7.2,6.1l0.5,0.5L7.6,7.3L8.3,7L9,7.3L8.8,6.6l0.5-0.5L8.6,6L8.3,5.3z"/>
		</g>
	</g>
	<path class="st2" d="M21.3,18.1c0.2-1.2,0-2.4-0.5-3.4c-0.6-1-1.5-1.8-2.6-2.3c-1.1-0.4-2.3-0.5-3.4-0.1c-1.1,0.4-2.1,1.1-2.7,2.1
		c-1-0.4-2-0.4-3,0c-1,0.4-1.7,1.1-2.1,2.1c-0.7-0.1-1.4-0.1-2.1,0.1c-0.7,0.2-1.3,0.5-1.9,0.9c-0.6,0.4-1,1-1.3,1.6
		c-0.3,0.6-0.5,1.3-0.6,2c-0.1,0.7,0,1.4,0.3,2.1c0.2,0.7,0.6,1.3,1.1,1.8c0.5,0.5,1.1,0.9,1.7,1.2c0.6,0.3,1.3,0.4,2,0.4h14
		c1,0,2.1-0.4,2.9-1.1c0.8-0.7,1.3-1.6,1.5-2.7c0.1-1-0.1-2.1-0.7-3C23.2,19.1,22.3,18.4,21.3,18.1L21.3,18.1z M20.1,25.5h-14
		c-0.6,0-1.1-0.1-1.6-0.4c-0.5-0.2-1-0.6-1.3-1c-0.4-0.4-0.6-0.9-0.8-1.4c-0.2-0.5-0.2-1.1-0.1-1.6c0.1-0.6,0.3-1.1,0.6-1.6
		C3.1,19,3.5,18.6,4,18.3c0.5-0.3,1-0.5,1.5-0.6c0.5-0.1,1.1-0.1,1.6,0.1c0.1,0,0.3,0,0.4-0.1c0.1-0.1,0.2-0.2,0.3-0.4
		C8,17,8.2,16.6,8.5,16.3c0.3-0.3,0.6-0.6,1-0.7s0.8-0.2,1.3-0.2c0.4,0,0.8,0.2,1.2,0.4c0.1,0,0.1,0.1,0.2,0.1c0.1,0,0.2,0,0.2,0
		c0.1,0,0.1-0.1,0.2-0.1c0.1-0.1,0.1-0.1,0.1-0.2c0.4-0.9,1.2-1.6,2.1-1.9s1.9-0.3,2.9,0c0.9,0.4,1.7,1.1,2.1,2
		c0.4,0.9,0.5,1.9,0.1,2.9c0,0.1,0,0.2,0,0.3c0,0.1,0,0.2,0.1,0.2c0,0.1,0.1,0.1,0.2,0.2c0.1,0,0.2,0.1,0.2,0.1
		c0.8,0.1,1.5,0.5,2.1,1.1c0.5,0.6,0.8,1.4,0.7,2.2c-0.1,0.8-0.4,1.6-1,2.1C21.7,25.2,20.9,25.5,20.1,25.5L20.1,25.5z"/>
</g>
</svg>
