<svg width="24" height="24" viewBox="0 0 24 24" fill="none" xmlns="http://www.w3.org/2000/svg">
<path d="M20.4497 19.7427L16.5433 15.8363C17.7423 14.4691 18.4038 12.7392 18.4038 10.9038C18.4038 8.90039 17.6235 7.01709 16.207 5.60059C14.7905 4.18408 12.9072 3.40381 10.9038 3.40381C8.90039 3.40381 7.01709 4.18408 5.60059 5.60059C4.18408 7.01709 3.40381 8.90039 3.40381 10.9038C3.40381 12.9072 4.18408 14.7905 5.60059 16.207C7.01709 17.6235 8.90039 18.4038 10.9038 18.4038C12.7392 18.4038 14.4691 17.7423 15.8363 16.5433L19.7427 20.4497C19.8403 20.5474 19.9683 20.5962 20.0962 20.5962C20.2241 20.5962 20.3521 20.5474 20.4497 20.4497C20.645 20.2544 20.645 19.938 20.4497 19.7427ZM6.30762 15.5C5.08008 14.2722 4.40381 12.6399 4.40381 10.9038C4.40381 9.16773 5.08008 7.5354 6.30762 6.30762C7.5354 5.08008 9.16773 4.40381 10.9038 4.40381C12.6399 4.40381 14.2722 5.08008 15.5 6.30762C16.7275 7.5354 17.4038 9.16773 17.4038 10.9038C17.4038 12.6399 16.7275 14.2722 15.5 15.5C14.2722 16.7275 12.6399 17.4038 10.9038 17.4038C9.16773 17.4038 7.5354 16.7275 6.30762 15.5Z" fill="black"/>
</svg>
