<?xml version="1.0" encoding="utf-8"?>
<!-- Generator: Adobe Illustrator 26.2.1, SVG Export Plug-In . SVG Version: 6.00 Build 0)  -->
<svg version="1.1" id="Layer_1" xmlns="http://www.w3.org/2000/svg" xmlns:xlink="http://www.w3.org/1999/xlink" x="0px" y="0px"
	 viewBox="0 0 40 40" style="enable-background:new 0 0 40 40;" xml:space="preserve">
<style type="text/css">
	.st0{fill:#FFFFFF;stroke:#1334AB;stroke-width:2;}
	.st1{fill:#1334AB;}
</style>
<path class="st0" d="M20,39L20,39C20,39,20,39,20,39C20,39,20,39,20,39L20,39l1.9-2.8v0c0.1-0.2,2.7-4,5.2-8.7L28,28l-0.9-0.5
	c1.9-3.4,3.3-6.2,4.2-8.5c0.9-2.3,1.3-4.1,1.3-5.4C32.6,6.6,26.9,1,20,1S7.4,6.6,7.4,13.6c0,1.3,0.4,3.1,1.3,5.4
	c0.9,2.3,2.3,5.1,4.2,8.5c2.6,4.6,5.1,8.5,5.2,8.7L20,39z M20,39l-1.9-2.8L20,39z M27.1,27.5L27.1,27.5c1.8-3.2,3.1-5.9,4-8.2
	c0.9-2.3,1.4-4.2,1.4-5.7C32.5,6.7,26.9,1,20,1C13.1,1,7.5,6.7,7.5,13.6c0,1.5,0.5,3.4,1.4,5.7c0.9,2.3,2.3,5,4,8.2l0,0
	c2.6,4.6,5.1,8.5,5.2,8.7l0,0l1,1.5L20,39l0.8-1.3l1-1.5C22,36,24.5,32.1,27.1,27.5z"/>
<path class="st1" d="M20,6c-4.2,0-7.5,3.4-7.5,7.5c0,4.2,3.4,7.5,7.5,7.5s7.5-3.4,7.5-7.5C27.5,9.3,24.2,6,20,6z M20,19
	c-3,0-5.5-2.5-5.5-5.5S17,8,20,8c3,0,5.5,2.5,5.5,5.5S23,19,20,19z"/>
</svg>
